# AST/ASF file generated using VICON BodyLanguage
# -----------------------------------------------
:version 1.10
:name VICON
:units
  mass 1.0
  length 0.45
  angle deg
:documentation
   .ast/.asf automatically generated from VICON data using
   VICON BodyBuilder and BodyLanguage model FoxedUp or BRILLIANT.MOD
:root
   order TX TY TZ RX RY RZ
   axis XYZ
   position 0 0 0  
   orientation 0 0 0 
:bonedata
  begin
     id 1 
     name lhipjoint
     direction 0.584852 -0.759097 0.285867 
     length 2.43633 
     axis 0 0 0  XYZ
  end
  begin
     id 2 
     name lfemur
     direction 0.34202 -0.939693 0  
     length 7.14704  
     axis 0 0 20  XYZ
    dof rx ry rz
    limits (-160.0 20.0)
           (-70.0 70.0)
           (-60.0 70.0)
  end
  begin
     id 3 
     name ltibia
     direction 0.342022 -0.939692 0   
     length 7.68483   
     axis 0 0 20   XYZ
    dof rx
    limits (-10.0 170.0)
  end
  begin
     id 4 
     name lfoot
     direction 0.0999605 -0.274639 0.956337   
     length 2.40452   
     axis -90 7.62852e-016 20   XYZ
    dof rx rz
    limits (-45.0 90.0)
           (-70.0 20.0)
  end
  begin
     id 5 
     name ltoes
     direction 1.53468e-011 -4.21881e-011 1   
     length 1.19837   
     axis -90 7.62852e-016 20   XYZ
    dof rx
    limits (-90.0 20.0)
  end
  begin
     id 6 
     name rhipjoint
     direction -0.569886 -0.769002 0.289597   
     length 2.40495  
     axis 0 0 0  XYZ 
  end
  begin
     id 7 
     name rfemur
     direction -0.34202 -0.939693 0   
     length 7.45086   
     axis 0 0 -20   XYZ
    dof rx ry rz
    limits (-160.0 20.0)
           (-70.0 70.0)
           (-70.0 60.0)
  end
  begin
     id 8 
     name rtibia
     direction -0.34202 -0.939693 0   
     length 7.76831   
     axis 0 0 -20   XYZ
    dof rx
    limits (-10.0 170.0)
 end
 begin
     id 9 
     name rfoot
     direction -0.0798572 -0.219406 0.97236   
     length 2.35911  
     axis -90 -7.62852e-016 -20   XYZ
    dof rx rz
    limits (-45.0 90.0)
           (-20.0 70.0)
  end
  begin
     id 10 
     name rtoes
     direction -1.53469e-011 -4.21728e-011 1   
     length 1.18261   
     axis -90 -7.62852e-016 -20   XYZ
    dof rx
    limits (-90.0 20.0)
  end
  begin
     id 11 
     name lowerback
     direction 0.0242088 0.999437 0.0232389   
     length 2.1561   
     axis 0 0 0   XYZ
    dof rx ry rz
    limits (-20.0 45.0)
           (-30.0 30.0)
           (-30.0 30.0)
  end
  begin
     id 12 
     name upperback
     direction -0.0356893 0.999013 -0.0264323   
     length 2.14431   
     axis 0 0 0   XYZ
    dof rx ry rz
    limits (-20.0 45.0)
           (-30.0 30.0)
           (-30.0 30.0)
  end
  begin
     id 13 
     name thorax
     direction -0.0472163 0.998194 -0.0371284   
     length 2.16169   
     axis 0 0 0   XYZ
    dof rx ry rz
    limits (-20.0 45.0)
           (-30.0 30.0)
           (-30.0 30.0)
  end
  begin
     id 14 
     name lowerneck
     direction 0.00863244 0.999921 0.00911972   
     length 1.58651   
     axis 0 0 0   XYZ
    dof rx ry rz
    limits (-20.0 45.0)
           (-30.0 30.0)
           (-30.0 30.0)
  end
  begin
     id 15 
     name upperneck
     direction 0.149523 0.979068 -0.138086   
     length 1.57486   
     axis 0 0 0   XYZ
    dof rx ry rz
    limits (-20.0 45.0)
           (-30.0 30.0)
           (-30.0 30.0)
  end
  begin
     id 16
     name head
     direction 0.0445219 0.997708 -0.0509576  
     length 1.6019  
     axis 0 0 0   XYZ
    dof rx ry rz
    limits (-20.0 45.0)
           (-30.0 30.0)
           (-30.0 30.0)
  end
  begin
     id 17 
     name lclavicle
     direction 0.911271 0.381667 -0.154644  
     length 3.80848  
     axis 0 0 0   XYZ
    dof ry rz
    limits (-20.0 10.0)
           (0.0 20.0)
  end
  begin
     id 18 
     name lhumerus
     direction 1 -4.49003e-011 2.1308e-027   
     length 5.19069   
     axis 180 -30 -90   XYZ
    dof rx ry rz
    limits (-60.0 90.0)
           (-90.0 90.0)
           (-90.0 90.0)
  end
  begin
     id 19
     name lradius
     direction 1 -4.48914e-011 4.01554e-027   
     length 3.30016   
     axis 180 -30 -90   XYZ
    dof rx
    limits (-10.0 170.0)
  end
  begin
     id 20
     name lwrist
     direction 1 -4.49003e-011 1.1934e-026   
     length 1.65008   
     axis -8.46377e-015 90 90   XYZ
    dof ry
    limits (-180.0 0.0)
 end
  begin
     id 21 
     name lhand
     direction 1 -4.49034e-011 2.38659e-026   
     length 0.707698   
     axis -1.52313e-014 90 90   XYZ
    dof rx rz
    limits (-90.0 90.0)
           (-45.0 45.0)
  end
  begin
     id 22 
     name lfingers
     direction 1 -4.48691e-011 4.77775e-026   
     length 0.570564   
     axis -3.04623e-014 90 90   XYZ
    dof rx
    limits (0.0 90.0)
  end
  begin
     id 23
     name lthumb
     direction 0.707107 -6.34832e-011 0.707107   
     length 0.819219   
     axis -90 45 -1.62303e-014   XYZ
    dof rx rz
    limits (-45.0 45.0)
           (-45.0 45.0)
  end
  begin
     id 24 
     name rclavicle
     direction -0.815579 0.573708 -0.0754329   
     length 3.54371  
     axis 0 0 0   XYZ 
    dof ry rz
    limits (-10.0 20.0)
           (-20.0 0.0)
  end
  begin
     id 25 
     name rhumerus
     direction -1 -4.48956e-011 3.05351e-028  
     length 5.23924   
     axis 180 30 90   XYZ
    dof rx ry rz
    limits (-90.0 60.0)
           (-90.0 90.0)
           (-90.0 90.0)
  end
  begin
     id 26 
     name rradius
     direction -1 -4.49013e-011 3.53849e-027   
     length 3.32953   
     axis 180 30 90   XYZ
    dof rx
    limits (-10.0 170.0)
  end
  begin
     id 27 
     name rwrist
     direction -1 -4.48901e-011 1.19374e-026   
     length 1.66477   
     axis -8.46377e-015 -90 -90   XYZ
    dof ry
    limits (-180.0 0.0)
  end
  begin
     id 28
     name rhand
     direction -1 -4.48877e-011 2.38764e-026   
     length 0.607414   
     axis -1.52313e-014 -90 -90   XYZ
    dof rx rz
    limits (-90.0 90.0)
           (-45.0 45.0)
  end
  begin
     id 29
     name rfingers
     direction -1 -4.48882e-011 4.77521e-026   
     length 0.489712   
     axis -3.04623e-014 -90 -90   XYZ
    dof rx
    limits (0.0 90.0)
  end
  begin
     id 30
     name rthumb
     direction -0.707107 -6.34974e-011 0.707107   
     length 0.703132   
     axis -90 -45 1.62303e-014   XYZ
    dof rx rz
    limits (-45.0 45.0)
           (-45.0 45.0)
  end
:hierarchy
  begin
    root lhipjoint rhipjoint lowerback
    lhipjoint lfemur
    lfemur ltibia
    ltibia lfoot
    lfoot ltoes
    rhipjoint rfemur
    rfemur rtibia
    rtibia rfoot
    rfoot rtoes
    lowerback upperback
    upperback thorax
    thorax lowerneck lclavicle rclavicle
    lowerneck upperneck
    upperneck head
    lclavicle lhumerus
    lhumerus lradius
    lradius lwrist
    lwrist lhand lthumb
    lhand lfingers
    rclavicle rhumerus
    rhumerus rradius
    rradius rwrist
    rwrist rhand rthumb
    rhand rfingers
  end

#!OML:ASF E:\VariousWalksJay\Project 1\Capture day 1\Session 1\Actor2.ASF
:FULLY-SPECIFIED
:DEGREES
359
root 4.73909 16.8803 -5.78355 136.922 -76.3979 -135.12
lowerback 5.05804 0.377404 10.2096
upperback 6.36175 0.497768 -0.396007
thorax 3.97579 0.59778 -6.15974
lowerneck -6.08313 1.25738 0.676318
upperneck 12.0438 0.0494174 10.2724
head 4.60869 0.530863 3.05748
rclavicle 3.57812e-015 3.02153e-014
rhumerus -74.9968 17.4254 -125.67
rradius 67.1541
rwrist 10.8019
rhand -4.85752 8.23023
rfingers 7.12502
rthumb 20.9303 -20.6606
lclavicle 3.57812e-015 3.02153e-014
lhumerus -79.2087 -29.4409 139.781
lradius 62.8987
lwrist 7.56792
lhand 11.4265 -16.2021
lfingers 7.12502
lthumb 36.478 9.99553
rfemur -33.633 3.89209 20.5477
rtibia 45.1703
rfoot -7.37599 6.20956
rtoes -22.8132
lfemur -28.5581 13.4101 -3.68934
ltibia 76.491
lfoot -17.4196 7.36237
ltoes -18.0511
360
root 4.68096 16.89 -5.88459 131.53 -77.0134 -130.361
lowerback 4.96369 0.286489 10.4775
upperback 6.435 0.358207 -0.192026
thorax 4.0882 0.541131 -6.09117
lowerneck -6.18464 1.10342 0.547004
upperneck 12.475 -0.212207 10.3905
head 4.77101 0.419326 3.10811
rclavicle 3.33958e-014 1.59028e-014
rhumerus -75.321 17.3518 -125.636
rradius 67.2974
rwrist 8.84642
rhand -4.40186 7.79231
rfingers 7.12502
rthumb 21.368 -21.0495
lclavicle 3.33958e-014 1.59028e-014
lhumerus -79.1464 -29.2018 140.014
lradius 62.6534
lwrist 7.6177
lhand 11.0474 -16.2269
lfingers 7.12502
lthumb 36.119 10.0603
rfemur -32.528 4.64648 20.166
rtibia 45.3555
rfoot -7.22706 8.14685
rtoes -23.1431
lfemur -30.5997 12.6482 -5.02901
ltibia 77.4104
lfoot -17.7383 5.97971
ltoes -19.4031
361
root 4.62185 16.8912 -5.98771 125.649 -77.4297 -125.136
lowerback 4.90592 0.213402 10.7678
upperback 6.5105 0.244171 0.0225097
thorax 4.18814 0.497017 -6.02453
lowerneck -6.26408 0.943751 0.408598
upperneck 12.8329 -0.481405 10.5644
head 4.90856 0.303767 3.17573
rclavicle -1.33186e-014 9.54166e-015
rhumerus -75.6127 17.2671 -125.618
rradius 67.348
rwrist 7.27443
rhand -4.07289 7.39259
rfingers 7.12502
rthumb 21.684 -21.4131
lclavicle -1.33186e-014 9.54166e-015
lhumerus -79.1385 -28.9627 140.267
lradius 62.4006
lwrist 7.62092
lhand 10.5461 -16.3164
lfingers 7.12502
lthumb 35.6441 10.0868
rfemur -31.3989 5.20266 20.0331
rtibia 45.4595
rfoot -7.17119 9.79701
rtoes -23.1034
lfemur -32.48 11.9129 -6.3169
ltibia 78.0654
lfoot -18.0192 4.73206
ltoes -20.6117
362
root 4.56312 16.8837 -6.09122 119.55 -77.6789 -119.695
lowerback 4.88527 0.149681 11.0551
upperback 6.57703 0.146843 0.228312
thorax 4.26088 0.459674 -5.9657
lowerneck -6.34055 0.784795 0.264093
upperneck 13.1455 -0.753292 10.79
head 5.03321 0.188079 3.25957
rclavicle -6.75868e-015 -8.74653e-015
rhumerus -75.8655 17.1754 -125.621
rradius 67.3013
rwrist 6.15238
rhand -3.87346 7.04881
rfingers 7.12502
rthumb 21.8755 -21.7346
lclavicle -6.75868e-015 -8.74653e-015
lhumerus -79.1836 -28.7188 140.533
lradius 62.1489
lwrist 7.57384
lhand 9.87504 -16.4865
lfingers 7.12502
lthumb 35.0078 10.0678
rfemur -30.2715 5.55044 20.0795
rtibia 45.4967
rfoot -7.27207 11.1787
rtoes -22.9003
lfemur -34.2364 11.1992 -7.62008
ltibia 78.4913
lfoot -18.2751 3.68266
ltoes -21.6822
363
root 4.50498 16.8668 -6.19535 113.508 -77.7216 -114.314
lowerback 4.91472 0.0957018 11.3568
upperback 6.6346 0.068669 0.433927
thorax 4.3 0.430202 -5.91515
lowerneck -6.4375 0.635489 0.121211
upperneck 13.4405 -1.01662 11.0421
head 5.15692 0.0785343 3.35184
rclavicle 1.53064e-014 -9.54166e-015
rhumerus -76.0997 17.1054 -125.655
rradius 67.1656
rwrist 5.49331
rhand -3.81342 6.82112
rfingers 7.12502
rthumb 21.9331 -21.9556
lclavicle 1.53064e-014 -9.54166e-015
lhumerus -79.2482 -28.4473 140.771
lradius 61.9179
lwrist 7.52983
lhand 9.08902 -16.7137
lfingers 7.12502
lthumb 34.2618 10.0116
rfemur -29.1515 5.75379 20.3205
rtibia 45.4883
rfoot -7.5877 12.313
rtoes -22.6657
lfemur -35.867 10.5524 -8.89684
ltibia 78.7315
lfoot -18.5231 2.82554
ltoes -22.6428
364
root 4.4486 16.8397 -6.30163 107.606 -77.4684 -109.075
lowerback 5.01116 0.0518746 11.7806
upperback 6.67865 0.0140516 0.661177
thorax 4.29529 0.413746 -5.90993
lowerneck -6.55706 0.495984 -0.00378462
upperneck 13.7205 -1.27186 11.3095
head 5.28095 -0.0247086 3.44629
rclavicle -2.98177e-015 -3.65764e-014
rhumerus -76.301 17.0347 -125.722
rradius 66.9698
rwrist 5.22343
rhand -3.84123 6.68383
rfingers 7.12502
rthumb 21.9064 -22.096
lclavicle -2.98177e-015 -3.65764e-014
lhumerus -79.3489 -28.1565 140.964
lradius 61.723
lwrist 7.50627
lhand 8.2191 -16.9951
lfingers 7.12502
lthumb 33.4353 9.9122
rfemur -28.0473 5.87136 20.8617
rtibia 45.46
rfoot -8.15349 13.1948
rtoes -22.48
lfemur -37.405 9.9893 -10.0049
ltibia 78.8425
lfoot -18.7517 2.0858
ltoes -23.4142
365
root 4.39464 16.8022 -6.40962 102.29 -76.9918 -104.399
lowerback 5.1587 0.0157532 12.2694
upperback 6.70606 -0.0204881 0.893083
thorax 4.25006 0.406642 -5.93555
lowerneck -6.70738 0.373876 -0.119547
upperneck 13.9813 -1.50415 11.5759
head 5.40436 -0.115277 3.54027
rclavicle 1.19271e-015 3.97569e-015
rhumerus -76.4805 16.9861 -125.822
rradius 66.757
rwrist 5.22782
rhand -3.88463 6.60109
rfingers 7.12502
rthumb 21.8647 -22.1836
lclavicle 1.19271e-015 3.97569e-015
lhumerus -79.4616 -27.8378 141.094
lradius 61.5727
lwrist 7.48884
lhand 7.26436 -17.3208
lfingers 7.12502
lthumb 32.5273 9.77797
rfemur -27.0038 5.91099 21.6197
rtibia 45.4381
rfoot -8.96988 13.8678
rtoes -22.3829
lfemur -38.8921 9.49441 -11.0193
ltibia 78.858
lfoot -18.9589 1.42607
ltoes -24.0493
366
root 4.34305 16.7547 -6.51948 97.7936 -76.3219 -100.516
lowerback 5.3434 -0.0150926 12.81
upperback 6.72217 -0.0398484 1.13121
thorax 4.17686 0.406329 -5.98275
lowerneck -6.88558 0.278701 -0.229521
upperneck 14.2095 -1.69457 11.824
head 5.52087 -0.185518 3.6299
rclavicle -1.11319e-014 -3.26007e-014
rhumerus -76.6496 16.9845 -125.952
rradius 66.5607
rwrist 5.37014
rhand -3.89351 6.53276
rfingers 7.12502
rthumb 21.8562 -22.2529
lclavicle -1.11319e-014 -3.26007e-014
lhumerus -79.5327 -27.4698 141.117
lradius 61.4808
lwrist 7.5326
lhand 6.36147 -17.6607
lfingers 7.12502
lthumb 31.6677 9.61132
rfemur -26.0361 5.91254 22.5817
rtibia 45.4397
rfoot -9.98519 14.3918
rtoes -22.1714
lfemur -40.3493 9.07713 -11.939
ltibia 78.8097
lfoot -19.146 0.761197
ltoes -24.5866
367
root 4.29395 16.6977 -6.63149 94.0892 -75.4938 -97.3903
lowerback 5.55453 -0.0387447 13.4139
upperback 6.7294 -0.0416032 1.36879
thorax 4.08563 0.415178 -6.06495
lowerneck -7.07675 0.202571 -0.333573
upperneck 14.3795 -1.84964 12.0544
head 5.61999 -0.239942 3.71446
rclavicle -2.20651e-014 -4.53229e-014
rhumerus -76.795 17.0006 -126.095
rradius 66.4065
rwrist 5.53501
rhand -3.83201 6.50169
rfingers 7.12502
rthumb 21.9153 -22.2771
lclavicle -2.20651e-014 -4.53229e-014
lhumerus -79.5923 -27.0849 141.051
lradius 61.4491
lwrist 7.60994
lhand 5.50227 -18.0228
lfingers 7.12502
lthumb 30.8489 9.40736
rfemur -25.1436 5.87246 23.7449
rtibia 45.4763
rfoot -11.2117 14.7468
rtoes -21.9319
lfemur -41.8005 8.70499 -12.7606
ltibia 78.718
lfoot -19.3028 0.0242693
ltoes -25.0544
368
root 4.24714 16.6324 -6.74448 91.1902 -74.5724 -95.0262
lowerback 5.77318 -0.0446129 14.0606
upperback 6.73047 -0.0135654 1.59083
thorax 3.99238 0.439947 -6.18682
lowerneck -7.26709 0.137975 -0.441803
upperneck 14.4663 -1.97561 12.2768
head 5.69172 -0.282902 3.7979
rclavicle 3.18055e-015 9.54166e-015
rhumerus -76.9084 17.0141 -126.235
rradius 66.3118
rwrist 5.67282
rhand -3.71475 6.48566
rfingers 7.12502
rthumb 22.0279 -22.2799
lclavicle 3.18055e-015 9.54166e-015
lhumerus -79.655 -26.7177 140.928
lradius 61.4765
lwrist 7.70535
lhand 4.70312 -18.3892
lfingers 7.12502
lthumb 30.0868 9.18228
rfemur -24.3305 5.8191 25.0592
rtibia 45.5543
rfoot -12.643 14.9201
rtoes -21.531
lfemur -43.2599 8.37317 -13.5297
ltibia 78.5878
lfoot -19.4239 -0.837822
ltoes -25.4398
